<svg xmlns="http://www.w3.org/2000/svg" viewBox="0 0 69.5 69.5"><defs><style>.cls-1{fill:#2f90f3;}.cls-2{fill:#fff;}</style></defs><title>Asset 10</title><g id="Layer_2" data-name="Layer 2"><g id="Layer_1-2" data-name="Layer 1"><circle class="cls-1" cx="34.75" cy="34.75" r="34.75"/><path class="cls-2" d="M42.82,36.9a1.54,1.54,0,0,0-2.18,0L39.3,38.24l-2-2,6-6a7.85,7.85,0,0,0,3.11.64h0A7.87,7.87,0,0,0,54,20.81a.47.47,0,0,0-.79-.2l-5,5a8.54,8.54,0,0,1-2.43-1.91,8.56,8.56,0,0,1-1.92-2.43l5-5a.47.47,0,0,0-.2-.79,7.9,7.9,0,0,0-2.2-.31,7.87,7.87,0,0,0-7.23,11l-6,6L27.07,26l0,0-2.81-4.82a.66.66,0,0,0-.19-.21L19.3,17.65a.66.66,0,0,0-.84.08l-2.11,2.11a.66.66,0,0,0-.08.84l3.29,4.74a.66.66,0,0,0,.21.19l4.82,2.81,0,0,6.15,6.15-4.63,4.63a7.87,7.87,0,0,0-10.66,9.46.47.47,0,0,0,.79.2l5-5a8.56,8.56,0,0,1,2.43,1.91,8.55,8.55,0,0,1,1.92,2.43l-5,5a.47.47,0,0,0,.2.79,7.88,7.88,0,0,0,9.43-10.67l4.63-4.63,2,2L35.52,42a1.54,1.54,0,0,0,0,2.18L45,53.64a1.54,1.54,0,0,0,2.18,0l5.12-5.12a1.54,1.54,0,0,0,0-2.18Zm3.34,13.38a.86.86,0,0,1-1.22,0l-6.06-6.06A.86.86,0,1,1,40.1,43l6.06,6.06A.86.86,0,0,1,46.16,50.28Zm2.74-2.74a.86.86,0,0,1-1.22,0l-6.06-6.06a.86.86,0,1,1,1.22-1.22l6.06,6.06A.86.86,0,0,1,48.9,47.54Z"/></g></g></svg>